<svg width="451" height="145" viewBox="0 0 451 145" xmlns="http://www.w3.org/2000/svg"><title>eth_logo</title><g fill="none"><path d="M141.64 80.25c0 .75-.627 1.359-1.376 1.359h-26.496c.662 6.545 5.588 12.517 12.517 12.517 4.735 0 8.252-1.81 10.898-5.589.383-.522.957-.853 1.688-.54.4.175.68.54.749.958.07.435-.052.68-.174.923-2.664 4.648-7.973 6.929-13.179 6.929-8.913 0-15.267-7.974-15.267-16.504 0-8.53 6.354-16.503 15.267-16.503 8.914-.018 15.355 7.938 15.372 16.45m-2.837-1.287c-.575-6.546-5.589-12.517-12.517-12.517-6.929 0-11.855 5.971-12.517 12.517h25.034zm34.991-14.52c.766 0 1.323.662 1.323 1.324 0 .766-.574 1.323-1.323 1.323h-7.103v27.87c0 .662-.574 1.323-1.323 1.323-.766 0-1.323-.661-1.323-1.323V67.09h-6.824c-.766 0-1.323-.575-1.323-1.323 0-.662.575-1.323 1.323-1.323h6.824V54.242c0-.644.436-1.236 1.062-1.34.888-.14 1.584.47 1.584 1.305v10.237h7.103zm43.33 13.475v16.887c0 .766-.661 1.323-1.323 1.323-.766 0-1.323-.575-1.323-1.323V77.918c0-5.692-3.22-11.385-9.574-11.385-8.148 0-11.664 7.12-11.194 14.414 0 .192.087 1.045.087 1.132v12.673c0 .644-.435 1.236-1.062 1.34-.888.14-1.584-.47-1.584-1.305V39.323c0-.661.574-1.323 1.323-1.323.766 0 1.323.662 1.323 1.323v31.388c2.28-4.074 6.354-6.824 11.09-6.824 7.78 0 12.237 6.824 12.237 14.031m47.509 2.333c0 .748-.627 1.358-1.376 1.358h-26.513c.662 6.545 5.588 12.517 12.517 12.517 4.735 0 8.252-1.81 10.898-5.589.383-.522.957-.853 1.688-.54.4.175.68.54.749.958.07.435-.052.68-.174.923-2.664 4.648-7.973 6.929-13.179 6.929-8.913 0-15.267-7.974-15.267-16.504 0-8.53 6.354-16.503 15.267-16.503 8.931-.018 15.372 7.938 15.39 16.45m-2.855-1.287c-.575-6.546-5.588-12.517-12.517-12.517-6.929 0-11.855 5.971-12.517 12.517h25.034zM297.15 65.68c0 .853-.47 1.323-1.236 1.427-7.781 1.132-11.28 7.486-11.28 14.885v12.673c0 .644-.436 1.236-1.063 1.34-.887.14-1.584-.47-1.584-1.305V65.82c0-.645.435-1.237 1.062-1.341.888-.14 1.584.47 1.584 1.305v5.884c2.176-3.69 6.546-7.207 11.09-7.207.661-.017 1.427.47 1.427 1.219m43.522 14.57c0 .75-.627 1.359-1.375 1.359h-26.496c.661 6.545 5.588 12.517 12.516 12.517 4.736 0 8.252-1.81 10.898-5.589.383-.522.958-.853 1.689-.54.4.175.679.54.749.958.07.435-.053.68-.175.923-2.663 4.648-7.973 6.929-13.178 6.929-8.913 0-15.267-7.974-15.267-16.504 0-8.53 6.354-16.503 15.267-16.503 8.913-.018 15.355 7.938 15.372 16.45m-2.838-1.287c-.574-6.546-5.588-12.517-12.517-12.517-6.928 0-11.855 5.971-12.516 12.517h25.033zm45.611-12.952v28.95c0 .766-.661 1.323-1.323 1.323-.766 0-1.323-.574-1.323-1.323v-5.5c-2.176 4.369-6.076 7.485-11.002 7.485-7.869 0-12.239-6.824-12.239-14.032V65.941c0-.662.575-1.323 1.323-1.323.766 0 1.324.661 1.324 1.323v16.973c0 5.693 3.22 11.386 9.574 11.386 8.914 0 11.003-8.339 11.003-17.548V65.94c0-.766.766-1.55 1.706-1.27.574.19.957.748.957 1.34m67.024 11.803v16.973c0 .766-.662 1.323-1.323 1.323-.766 0-1.323-.574-1.323-1.323V77.814c0-5.693-3.221-11.281-9.575-11.281-7.973 0-11.003 8.53-11.003 15.163v13.091c0 .766-.661 1.323-1.323 1.323-.766 0-1.323-.574-1.323-1.323V77.814c0-5.693-3.22-11.281-9.574-11.281-8.06 0-11.386 6.354-11.09 14.797 0 .192.087.575 0 .662v12.76c0 .644-.435 1.236-1.08 1.34-.887.14-1.583-.47-1.583-1.305V65.82c0-.644.435-1.236 1.062-1.34.887-.14 1.584.47 1.584 1.305v4.84c2.28-4.074 6.354-6.737 11.09-6.737 5.396 0 9.574 3.412 11.28 8.443 2.176-4.927 6.441-8.443 11.942-8.443 7.782 0 12.239 6.72 12.239 13.927" fill="#3C3C3B"/><g fill="#010101"><path d="M44.392 53.34L.104 73.482l44.288 26.165 44.27-26.165z" opacity=".6"/><path d="M.104 73.482l44.288 26.165V0z" opacity=".45"/><path d="M44.392 0v99.647l44.27-26.165z" opacity=".8"/><path d="M.104 81.873l44.288 62.393v-36.228z" opacity=".45"/><path d="M44.392 108.038v36.228l44.305-62.393z" opacity=".8"/></g></g></svg>