<svg xmlns="http://www.w3.org/2000/svg" viewBox="0 0 384 384"><defs><style>.cls-1{fill:#ffb03b}.cls-2{fill:#ffc46c}.cls-3{fill:#ffd89d}.cls-4{fill:#ffebce}.cls-5{fill:#fff}.cls-6{fill:#ff903d}</style></defs><title>資產 1</title><g id="圖層_2" data-name="圖層 2"><g id="圖層_1-2" data-name="圖層 1"><path class="cls-1" d="M192 0L96 192l96 192c106 0 192-86 192-192S298 0 192 0zm0 0"/><path class="cls-2" d="M0 192c0 106 86 192 192 192V0C86 0 0 86 0 192zm0 0"/><path class="cls-2" d="M192 33.75L112.87 192 192 350.25a158.25 158.25 0 1 0 0-316.5zm0 0"/><path class="cls-3" d="M33.75 192A158.25 158.25 0 0 0 192 350.25V33.75A158.25 158.25 0 0 0 33.75 192zm0 0"/><path class="cls-4" d="M192 67.5L129.75 192 192 316.5a124.5 124.5 0 1 0 0-249zm0 0"/><path class="cls-5" d="M67.5 192A124.5 124.5 0 0 0 192 316.5v-249A124.5 124.5 0 0 0 67.5 192zm0 0"/><path class="cls-6" d="M314.94 159.07l-84.72-12.31L192.33 70l-42.69 128.91 42.69 64.46 75.77 39.83-14.47-84.37zm0 0"/><path class="cls-1" d="M154.45 146.77l-84.72 12.3L131 218.83l-14.44 84.37 75.77-39.83V70zm0 0"/><path class="cls-5" d="M238.07 259.17h-77.52q-9 0-12.07-1.28t-3.11-4V138.14a6.94 6.94 0 0 1 4.3-6.76q4.29-2 15.45-2h73.5q3.84 0 3.84 12.71t-1.64 19.38q-1.65 6.68-4.39 6.67-11.89 0-40-2.38V178q27.06-1.1 35.29-1.1 4.94 0 4.94 11.52t-1.92 17.46q-1.92 5.94-5.21 5.94l-33.09-.73v11.7q31.81-2.37 43.88-2.38 3.84 0 3.84 12.8t-1.65 19.38q-1.7 6.58-4.44 6.58z"/><path class="cls-1" d="M238.07 263.67h-77.52c-6.72 0-11.1-.51-13.78-1.62-3.74-1.54-5.89-4.52-5.89-8.18V138.14a11.43 11.43 0 0 1 6.89-10.84c3.55-1.66 9.07-2.44 17.36-2.44h73.5c8.34 0 8.34 12.5 8.34 17.21 0 8.92-.58 15.61-1.78 20.46-.62 2.5-2.49 10.1-8.76 10.1h-2.87c3.79.82 7.55 4.48 7.55 15.82 0 8.23-.7 14.39-2.14 18.84-2 6.07-5 8.25-7.69 8.86 3.56-.14 6.55-.21 9-.21 8.34 0 8.34 12.57 8.34 17.3 0 9-.58 15.68-1.78 20.47-.64 2.44-2.51 9.96-8.77 9.96zm-88.2-10.09l.32.15c.69.29 3.07.94 10.36.94H237a14.86 14.86 0 0 0 1.09-3.17c1-4 1.51-10.17 1.51-18.29a31 31 0 0 0-.76-8.29c-8.14.09-22.3.88-42.12 2.36l-4.83.36v-21.15l37.21.82a8.85 8.85 0 0 0 1.32-2.82c1.13-3.49 1.7-8.9 1.7-16.08 0-4.51-.63-6.37-.94-7-5.62 0-17.25.39-34.6 1.09l-4.68.19v-21.84l4.88.41c17.71 1.5 30.68 2.29 38.58 2.36a15.28 15.28 0 0 0 1.1-3.25c1-4.08 1.51-10.23 1.51-18.3a30.64 30.64 0 0 0-.76-8.21h-72.09c-8.83 0-12.28 1-13.54 1.59a2.49 2.49 0 0 0-1.7 2.69zm51-37.89v2.26c10.84-.78 19.71-1.34 26.73-1.67zm0-45.05v2.68c12.54-.49 21.72-.79 27.42-.88-6.99-.3-16.17-.9-27.41-1.81z"/></g></g></svg>